<?xml version="1.0" standalone="no"?>
<!DOCTYPE svg PUBLIC "-//W3C//DTD SVG 1.1//EN" "http://www.w3.org/Graphics/SVG/1.1/DTD/svg11.dtd" >
<svg xmlns="http://www.w3.org/2000/svg" xmlns:xlink="http://www.w3.org/1999/xlink" version="1.1">
<metadata>
Created by FontForge 20170731 at Fri May  1 21:56:55 2020
 By Aleksey,,,
Typeface (c) (your company). 2020. All Rights Reserved
</metadata>
<defs>
<font id="AkiraExpanded-SuperBold" horiz-adv-x="1613" >
  <font-face 
    font-family="Akira Expanded"
    font-weight="800"
    font-stretch="normal"
    units-per-em="2048"
    panose-1="2 0 8 0 0 0 0 0 0 0"
    ascent="1638"
    descent="-410"
    x-height="1343"
    cap-height="1345"
    bbox="19.9711 -393 3036 1634"
    underline-thickness="150"
    underline-position="-442"
    unicode-range="U+0020-2265"
  />
<missing-glyph horiz-adv-x="864" 
d="M844 0h-824v1434h824v-1434zM70 1384v-1334h724v1334h-724zM220 1060v83q32 29 63 47q62 35 132 35q107 0 168 -52t61 -129q0 -45 -23 -96q-23 -50 -87 -129q-62 -79 -99 -132q-36 -53 -36 -103q0 -36 26 -138h-82q-38 106 -38 154q0 72 81 215q82 142 82 219
q0 58 -27 87.5t-71 29.5q-28 0 -50 -12q-24 -14 -100 -79zM300 331l58 59q14 12 29 12q13 0 30 -14l56 -60q8 -11 8 -19q0 -11 -10 -21l-56 -62q-17 -17 -28 -17q-17 0 -29 13l-62 71q-7 8 -7 17q0 10 11 21z" />
    <glyph glyph-name=".notdef" horiz-adv-x="864" 
d="M844 0h-824v1434h824v-1434zM70 1384v-1334h724v1334h-724zM220 1060v83q32 29 63 47q62 35 132 35q107 0 168 -52t61 -129q0 -45 -23 -96q-23 -50 -87 -129q-62 -79 -99 -132q-36 -53 -36 -103q0 -36 26 -138h-82q-38 106 -38 154q0 72 81 215q82 142 82 219
q0 58 -27 87.5t-71 29.5q-28 0 -50 -12q-24 -14 -100 -79zM300 331l58 59q14 12 29 12q13 0 30 -14l56 -60q8 -11 8 -19q0 -11 -10 -21l-56 -62q-17 -17 -28 -17q-17 0 -29 13l-62 71q-7 8 -7 17q0 10 11 21z" />
    <glyph glyph-name=".null" horiz-adv-x="0" 
 />
    <glyph glyph-name="nonmarkingreturn" horiz-adv-x="682" 
 />
    <glyph glyph-name="space" unicode=" " horiz-adv-x="1000" 
 />
    <glyph glyph-name="space" unicode="&#xa0;" horiz-adv-x="1000" 
 />
    <glyph glyph-name="exclam" unicode="!" horiz-adv-x="564" 
d="M20 1475h524v-885h-524v885zM20 393h524v-393h-524v393z" />
    <glyph glyph-name="quotedbl" unicode="&#x22;" horiz-adv-x="1050" 
d="M932 721h-263l-98 754h459zM381 721h-263l-98 754h459z" />
    <glyph glyph-name="numbersign" unicode="#" horiz-adv-x="2244" 
d="M1331 852h-361l-56 -229h360zM762 0h-492l56 229h-306v394h402l56 229h-327v394h423l57 229h491l-56 -229h361l56 229h492l-57 -229h306v-394h-402l-56 -229h327v-394h-423l-56 -229h-492l56 229h-360z" />
    <glyph glyph-name="dollar" unicode="$" horiz-adv-x="1810" 
d="M555 914q0 -29 37 -38.5t166 -14.5v171q-112 -11 -157.5 -44.5t-45.5 -73.5zM1275 462q0 24 -16 35.5t-62 18.5t-144 11v-187q67 7 113.5 21.5t68.5 33t31 34.5t9 33zM20 468h515q0 -99 223 -126v196q-385 20 -551 108q-167 89 -167 291q0 191 183.5 299t534.5 125v209
h295v-210q711 -35 711 -436h-515q0 68 -196 99v-173q124 -6 215 -15t179.5 -26t147.5 -44t105 -66.5t68 -96t22 -129.5q0 -230 -185 -340t-552 -124v-209h-295v208q-149 6 -260 22t-204.5 49t-152 84.5t-90 127.5t-31.5 177z" />
    <glyph glyph-name="percent" unicode="%" horiz-adv-x="2813" 
d="M898 0l525 1475h491l-524 -1475h-492zM2082 473v-61q0 -78 50 -108q42 -27 125 -27q91 0 133.5 32.5t42.5 102.5v61q0 78 -50 108q-42 27 -126 27q-91 0 -133 -32.5t-42 -102.5zM2049 20q-327 74 -327 371v103q0 219 175 315q73 39 152 56q108 20 208 20q101 0 209 -20
q70 -15 126.5 -42.5t103 -71t72 -109t25.5 -148.5v-103q0 -219 -175 -315q-73 -39 -152 -56q-108 -20 -209 -20q-100 0 -208 20zM380 1063v-61q0 -78 50 -108q42 -27 125 -27q91 0 133.5 32.5t42.5 102.5v61q0 78 -51 108q-41 27 -125 27q-91 0 -133 -32.5t-42 -102.5z
M195 1399q70 38 152 56q108 20 208 20t209 -20q329 -75 326 -371v-103q0 -220 -175 -315q-71 -39 -151 -56q-109 -20 -209 -20t-208 20q-327 72 -327 371v103q0 220 175 315z" />
    <glyph glyph-name="ampersand" unicode="&#x26;" horiz-adv-x="1810" 
d="M1151 468v125h-344q-116 0 -186.5 -15.5t-98 -42.5t-27.5 -67q0 -62 71.5 -95.5t240.5 -33.5q171 0 257.5 35t86.5 94zM1593 593v-193q0 -57 -17.5 -111t-70 -114.5t-136 -104.5t-228.5 -73.5t-334 -29.5q-137 0 -251.5 15t-194.5 40.5t-141.5 61.5t-98 74t-60 82.5
t-32.5 82.5t-9 77q0 45 3.5 80t18.5 81t40 80t72.5 65.5t113.5 49.5q-168 84 -168 266q0 185 163 270t544 85q179 0 311 -20q207 -30 301 -112.5t94 -222.5q0 -16 -2 -44h-425q-6 17 -11.5 27t-24 25.5t-45.5 24t-78 15t-120 6.5q-250 0 -250 -120q0 -23 10.5 -40.5
t36.5 -33t77 -23.5t126 -8h311h672v-258h-197z" />
    <glyph glyph-name="quotesingle" unicode="'" horiz-adv-x="499" 
d="M381 721h-263l-98 754h459z" />
    <glyph glyph-name="parenleft" unicode="(" horiz-adv-x="925" 
d="M905 -202h-426q-188 -2 -324.5 134.5t-134.5 324.5v852q-2 188 134.5 324.5t324.5 134.5h426v-393h-262q-68 0 -116 -48t-48 -116v-656q0 -68 48 -116t116 -48h262v-393z" />
    <glyph glyph-name="parenright" unicode=")" horiz-adv-x="925" 
d="M446 -202h-426v393h262q68 0 116 48t48 116v656q0 68 -48 116t-116 48h-262v393h426q188 2 324.5 -134.5t134.5 -324.5v-852q2 -188 -134.5 -324.5t-324.5 -134.5z" />
    <glyph glyph-name="asterisk" unicode="*" horiz-adv-x="1087" 
d="M401 480l-292 211l251 233l-340 40l111 343l299 -168l-67 336h361l-68 -336l299 168l112 -342l-341 -41l253 -232l-292 -212l-144 311z" />
    <glyph glyph-name="plus" unicode="+" 
d="M577 1331h459v-459h557v-393h-557v-459h-459v459h-557v393h557v459z" />
    <glyph glyph-name="comma" unicode="," horiz-adv-x="564" 
d="M315 -393h-197l131 393h-229v394h524v-394z" />
    <glyph glyph-name="hyphen" unicode="-" horiz-adv-x="1515" 
d="M20 869h1475v-393h-1475v393z" />
    <glyph glyph-name="hyphen" unicode="&#xad;" horiz-adv-x="1515" 
d="M20 869h1475v-393h-1475v393z" />
    <glyph glyph-name="period" unicode="." horiz-adv-x="564" 
d="M20 393h524v-393h-524v393z" />
    <glyph glyph-name="slash" unicode="/" horiz-adv-x="1155" 
d="M544 -52h-524l590 1475h525z" />
    <glyph glyph-name="zero" unicode="0" horiz-adv-x="1745" 
d="M1200 624v98q0 148 -102 213q-83 49 -226 49q-328 0 -328 -262v-98q0 -153 103 -213q85 -50 225 -50q53 0 97.5 6t88.5 24t74 46t49 76t19 111zM1205 1345q88 -19 162 -49.5t141.5 -80t114.5 -113t74.5 -152.5t27.5 -195v-164q0 -346 -279 -502q-110 -59 -241 -88
q-150 -33 -333 -33q-184 0 -332 33q-111 24 -200.5 67.5t-163.5 112.5t-115 173.5t-41 236.5v164q0 347 279 501q106 60 241 89q148 33 332 33q183 0 333 -33z" />
    <glyph glyph-name="one" unicode="1" horiz-adv-x="1482" 
d="M495 1344h525v-951h442v-393h-1442v393h475v525l-409 -131v426z" />
    <glyph glyph-name="two" unicode="2" horiz-adv-x="1745" 
d="M1725 929q0 -46 -12.5 -86.5t-31.5 -73t-51.5 -62.5t-63.5 -51.5t-77.5 -43t-83 -35.5t-90.5 -30t-88.5 -25t-88.5 -22q-119 -28 -190.5 -54.5t-99.5 -60.5h855v-384h-1683v227q0 50 17 95.5t43 82t71 71t87.5 60.5t106 52t113 43.5t122.5 37.5t120 32t119 29
q233 57 301 88q78 36 79 76q0 45 -69 72t-204 27q-79 -1 -139.5 -8t-113 -23.5t-80 -48t-26.5 -76.5h-526q0 96 21.5 172.5t60 132.5t98.5 97.5t129 67.5t160.5 42t185 22t208.5 6q199 0 347.5 -24.5t256 -77t162.5 -139.5t55 -208z" />
    <glyph glyph-name="three" unicode="3" horiz-adv-x="1745" 
d="M1725 966q0 -193 -213 -293q213 -100 213 -294q0 -206 -214 -308.5t-617 -102.5q-118 0 -213 6t-187.5 22t-162.5 42.5t-130.5 68t-99 97t-60 131.5t-21.5 171h525q-1 -39 16.5 -66t46.5 -41t73.5 -21t92.5 -9t108 -3h33q148 0 216 25t68 78q0 46 -30 62q-41 21 -220 23
q-54 1 -216 1v235q316 0 384 10q66 11 77 43q5 13 5 33q0 106 -284 104q-181 -3 -236 -12q-115 -21 -131 -96q-3 -15 -3 -33h-525q0 95 21.5 171t60 131.5t99 97t130.5 68t162.5 42.5t187.5 22t213 6q403 0 617 -102t214 -309z" />
    <glyph glyph-name="four" unicode="4" horiz-adv-x="1745" 
d="M544 623h459v336zM1003 1344h525v-721h197v-394h-197v-229h-525v229h-983v394z" />
    <glyph glyph-name="five" unicode="5" horiz-adv-x="1745" 
d="M598 858h135q99 0 175.5 -1.5t165 -7.5t155.5 -15.5t138 -26.5t121.5 -40.5t97.5 -57t76 -76t46 -98.5t17 -123q0 -210 -218 -327q-217 -117 -613 -117q-118 0 -213 6t-187.5 22t-162.5 42.5t-130.5 68t-99 97t-60 131.5t-21.5 171h525q-1 -39 16.5 -66t46.5 -41
t73.5 -21t92.5 -9t108 -3h33q148 0 216 25t68 78q0 36 -15.5 60.5t-61.5 47t-143 33.5t-246 11h-713v3l164 721h1442v-361h-1000z" />
    <glyph glyph-name="six" unicode="6" horiz-adv-x="1745" 
d="M1255 458q0 28 -27 51q-71 50 -212 62q-142 13 -284 3q-144 -9 -212 -25l-31 -8v-130q1 -10 6.5 -20t30 -26.5t64.5 -28t121 -20t189 -8.5q34 0 69.5 2t90.5 11t95 23.5t70 44t30 69.5zM1610 690q115 -97 115 -241q0 -50 -9.5 -96t-35.5 -95t-66 -90.5t-105 -79
t-149.5 -63.5t-203 -41.5t-261.5 -15.5t-253 8.5t-213 30.5t-175 60.5t-126.5 96t-81 141t-26.5 192.5v318q0 109 26.5 192.5t81 141.5t126.5 96.5t175 60.5t213 30.5t253 8.5h727v-335h-887q-36 0 -71 -5t-78.5 -18t-70.5 -44.5t-27 -77.5v-34l48 9q50 10 178 17
q135 9 300 2q171 -8 329 -46q161 -37 267 -123z" />
    <glyph glyph-name="seven" unicode="7" 
d="M1036 951h-1016v393h1573v-393l-753 -951h-656z" />
    <glyph glyph-name="eight" unicode="8" horiz-adv-x="1745" 
d="M872 340q312 0 312 129q0 40 -27.5 66.5t-98.5 42.5t-186 16q-169 0 -240.5 -32t-71.5 -93q0 -62 72.5 -95.5t239.5 -33.5zM872 1045q-99 0 -155 -11t-75 -29t-19 -48q0 -31 18.5 -49t74.5 -29t156 -11q101 0 157 11t74.5 29t18.5 49q0 30 -19.5 48t-75.5 29t-155 11z
M1411 757q165 -45 239.5 -132.5t74.5 -223.5q0 -87 -25.5 -153t-85 -120.5t-157 -88.5t-243.5 -52.5t-342 -18.5q-245 0 -411.5 27t-263 84t-137 134.5t-40.5 187.5q0 137 74 224t240 132q-169 84 -169 266q0 185 163.5 269.5t543.5 84.5q256 0 412.5 -39t225.5 -115.5
t69 -199.5q0 -179 -168 -266z" />
    <glyph glyph-name="nine" unicode="9" horiz-adv-x="1745" 
d="M489 888q0 -28 28 -51q69 -50 211 -63q142 -12 285 -3q147 11 212 26l31 7l-1 131q0 10 -5.5 20t-29.5 26t-65 28t-122 20.5t-189 8.5q-33 0 -69 -2t-90.5 -11t-95 -24t-70.5 -44.5t-30 -68.5zM134 656q-114 98 -114 240q0 50 9.5 96t35 95.5t65.5 91t105 79t149.5 63.5
t203.5 41.5t262 15.5q122 0 219 -6t190 -21.5t162.5 -41.5t128.5 -66.5t96.5 -96t58 -130t20.5 -168.5v-318q0 -93 -20.5 -168t-58 -130t-96.5 -95.5t-128.5 -66.5t-162.5 -41.5t-190 -21.5t-219 -6h-727v335h887q36 0 70.5 5t78 18t70.5 44.5t27 77.5v33l-47 -8
q-46 -9 -179 -18q-135 -9 -300 -2q-164 7 -330 46q-160 39 -266 124z" />
    <glyph glyph-name="colon" unicode=":" horiz-adv-x="564" 
d="M20 1115h524v-394h-524v394zM20 393h524v-393h-524v393z" />
    <glyph glyph-name="semicolon" unicode=";" horiz-adv-x="564" 
d="M20 1115h524v-393h-524v393zM315 -393h-197l131 393h-229v394h524v-394z" />
    <glyph glyph-name="less" unicode="&#x3c;" 
d="M20 869l1573 393v-393l-786 -197l786 -196v-394l-1573 394v393z" />
    <glyph glyph-name="equal" unicode="=" 
d="M20 1179h1573v-393h-1573v393zM20 559h1573v-393h-1573v393z" />
    <glyph glyph-name="greater" unicode="&#x3e;" 
d="M20 869v393l1573 -393v-393l-1573 -394v394l787 196z" />
    <glyph glyph-name="question" unicode="?" horiz-adv-x="1646" 
d="M446 1033v-33h-425q-1 11 -1 33q0 197 89 298q54 63 166 104q111 40 302 40h492q106 0 190.5 -14t142 -37.5t99.5 -59t65.5 -71.5t37.5 -83.5t18 -87t4 -89.5q0 -43 -9 -79t-21 -60.5t-37.5 -46t-43.5 -33.5t-55 -25t-56 -18t-61 -16q-36 -8 -59 -14.5t-55 -18t-52 -24
t-42.5 -32t-35.5 -43.5t-21.5 -57.5t-8.5 -73.5h-525q0 73 17 134t43 103.5t68 77.5t79.5 55.5t91.5 38.5t90.5 26t88.5 18q45 9 71.5 15.5t54 17t40 24t12.5 31.5q0 63 -45 83q-45 21 -168 21h-328q-122 0 -168 -20q-45 -19 -45 -84zM1069 0h-525v328h525v-328z" />
    <glyph glyph-name="at" unicode="@" horiz-adv-x="1908" 
d="M1397 655l10 12l-10 12q-50 59 -118 95q-64 34 -152 34q-93 0 -139.5 -15.5t-60 -43t-13.5 -82.5q0 -79 36 -108q36 -33 177 -33q157 0 270 129zM1888 1082v-841h-393v192l-26 -30q-5 -5 -31 -32q-66 -61 -152 -99q-110 -48 -230 -48q-305 0 -421 131q-91 104 -91 312
t91 312q116 131 421 131q218 0 382 -147q26 -26 31 -32l26 -30v127q0 143 -184 204q-81 26 -180 33q-106 8 -160 8q-57 0 -121.5 -6t-145 -24t-143 -45.5t-105.5 -76t-43 -110.5v-688q0 -62 39.5 -110.5t97.5 -76t133.5 -45.5t137 -24t117.5 -6h33v-361h-33q-148 0 -309 24
q-160 24 -298 81q-311 129 -311 469v786q0 340 311 469q139 57 316 81q175 24 324 24q96 0 174.5 -4t176.5 -18t174 -37t152 -65t126.5 -98.5t82 -140.5t31.5 -189z" />
    <glyph glyph-name="A" unicode="A" horiz-adv-x="2105" 
d="M1053 954l-185 -397h369zM20 -1l721 1344h623l721 -1344h-590l-106 230h-673l-106 -230h-590z" />
    <glyph glyph-name="B" unicode="B" horiz-adv-x="1843" 
d="M544 319h705q33 0 57.5 27.5t24.5 62.5t-24.5 62.5t-57.5 27.5h-705v-180zM1151 1024h-607v-181h607q33 0 57.5 28t24.5 63t-24.5 62.5t-57.5 27.5zM1569 694q117 -38 185.5 -124t68.5 -210q2 -169 -121 -265t-305 -96h-1377v1344h1278q88 0 165.5 -23.5t136.5 -68
t92.5 -114t32.5 -154.5q0 -95 -41 -168.5t-115 -120.5z" />
    <glyph glyph-name="C" unicode="C" horiz-adv-x="1873" 
d="M1316 558h537q-43 -590 -915 -590q-158 0 -289.5 19t-251 66t-201 120t-129.5 187.5t-47 263.5v98q-1 148 47 262.5t129.5 187.5t201 120t250.5 66t290 20q872 -2 915 -590h-537q-34 92 -130.5 127.5t-247.5 35.5q-71 -1 -124.5 -7t-106.5 -23t-87 -45t-55 -75.5
t-20 -111.5v-33q-1 -64 20 -111t55 -75t87 -45.5t107 -23.5t124 -7q151 0 247.5 36t130.5 128z" />
    <glyph glyph-name="D" unicode="D" horiz-adv-x="1876" 
d="M1331 671q0 106 -57 176t-156 70h-574v-492h574q99 0 156 70.5t57 175.5zM20 1343h1196q180 2 328.5 -89t230.5 -246t81 -337q1 -181 -81 -336t-230.5 -246.5t-328.5 -89.5h-1196v1344z" />
    <glyph glyph-name="E" unicode="E" 
d="M20 -1v1344h1573v-344h-1049v-172h1049v-311h-1049v-172h1049v-345h-1573z" />
    <glyph glyph-name="F" unicode="F" horiz-adv-x="1679" 
d="M20 -1v1344h1639v-426h-1115v-164h984v-393h-984v-361h-524z" />
    <glyph glyph-name="G" unicode="G" horiz-adv-x="1867" 
d="M934 509v230h913v-771h-262l-26 209q-110 -109 -272.5 -159t-348.5 -50q-159 1 -290.5 20t-251 66t-201 120t-129 187.5t-46.5 262.5v98q0 107 24 196.5t68 156t109 118.5t142 86.5t171.5 57t193 32t210.5 9.5q832 0 909 -541h-557q-49 67 -143 91q-93 24 -209 24
q-71 -1 -124.5 -7t-107 -23.5t-87.5 -45.5t-55 -75t-20 -111v-33q-1 -64 20 -111.5t55 -75.5t87.5 -45t107 -23t124.5 -7q175 0 269 21.5t149 92.5h-422z" />
    <glyph glyph-name="H" unicode="H" horiz-adv-x="1876" 
d="M1331 460h-787v-459h-524v1344h524v-459h787v459h525v-1344h-525v459z" />
    <glyph glyph-name="I" unicode="I" horiz-adv-x="564" 
d="M20 1345h524v-1344h-524v1344z" />
    <glyph glyph-name="J" unicode="J" horiz-adv-x="1875" 
d="M1331 656v688h524v-721q0 -655 -918 -655q-159 0 -290.5 19t-250.5 66t-200.5 120t-129 187.5t-46.5 262.5v164h524v-131q-1 -64 20 -111.5t55 -75.5t87 -45t106.5 -23t124.5 -7q71 1 124.5 7t107 23t87.5 45t55 75.5t20 111.5z" />
    <glyph glyph-name="K" unicode="K" horiz-adv-x="1974" 
d="M773 460h-229v-459h-524v1344h524v-459h229l493 459h688l-697 -672l697 -672h-688z" />
    <glyph glyph-name="L" unicode="L" 
d="M20 1345h524v-918h1049v-426h-1573v1344z" />
    <glyph glyph-name="M" unicode="M" horiz-adv-x="2400" 
d="M20 1v1344h656l524 -672l525 672h655v-1344h-524v717l-525 -717h-262l-525 717v-717h-524z" />
    <glyph glyph-name="N" unicode="N" horiz-adv-x="1876" 
d="M1331 633v712h525v-1344h-590l-722 821v-821h-524v1344h721z" />
    <glyph glyph-name="O" unicode="O" horiz-adv-x="1875" 
d="M938 1378q917 0 917 -656v-98q1 -148 -46.5 -262.5t-129 -188t-200.5 -120t-250.5 -66t-290.5 -19.5q-112 0 -210.5 9.5t-193 32t-171.5 57t-142 86.5t-109 119t-68 156t-24 196v98q0 107 24 196.5t68 156t109 118.5t142 86.5t171.5 57t193 32t210.5 9.5zM1331 657v33
q1 64 -20 111t-55 75t-87 45.5t-107 23.5t-124 7q-71 -1 -124.5 -7t-107 -23.5t-87.5 -45.5t-55 -75t-20 -111v-33q-1 -64 20 -111.5t55 -75.5t87.5 -45.5t107 -23.5t124.5 -7q70 1 124 7t107 23.5t87 45.5t55 75.5t20 111.5z" />
    <glyph glyph-name="P" unicode="P" horiz-adv-x="1843" 
d="M544 721h640q47 0 80 33q34 34 34 81q0 48 -34 81q-33 34 -80 34h-640v-229zM20 1343h1295q136 1 254 -67.5t187 -186.5t67 -254q2 -136 -67 -254t-187 -187t-254 -67h-771v-328h-524v1344z" />
    <glyph glyph-name="Q" unicode="Q" horiz-adv-x="1876" 
d="M1856 721v-98q0 -361 -274 -521l274 -397h-558l-169 270q-99 -8 -191 -8q-159 1 -290 20t-250.5 65.5t-201 119.5t-129.5 187.5t-47 263.5v98q-1 148 47 262.5t129.5 187.5t201 120t250.5 66t290 20q159 -1 290 -20t250.5 -66t201 -120t129.5 -187.5t47 -262.5zM938 393
q70 1 124 7t107 23.5t87 45.5t55 75t20 111v33q1 64 -20 111.5t-55 75.5t-87 45t-106.5 23t-124.5 7q-71 -1 -124.5 -7t-107 -23t-87.5 -45t-55 -75.5t-20 -111.5v-33q-1 -64 20 -111t55 -75t87.5 -45.5t107 -23.5t124.5 -7z" />
    <glyph glyph-name="R" unicode="R" horiz-adv-x="1843" 
d="M20 1344h1295q136 1 254 -67.5t187 -186.5t67 -254q0 -152 -81 -275q-80 -123 -212 -184l293 -377h-558l-253 328h-468v-328h-524v1344zM1183 951h-639v-229h639q48 0 81 33q34 34 34 81q0 48 -33.5 81.5t-81.5 33.5z" />
    <glyph glyph-name="S" unicode="S" horiz-adv-x="1864" 
d="M569 902q0 -40 88 -54t286 -23q327 -17 482 -46q371 -71 413 -277q6 -28 6 -59q0 -112 -50.5 -196.5t-133.5 -136.5t-204 -85t-247 -45t-277 -12q-110 0 -197 4.5t-180.5 17.5t-164 34t-138 57t-113 85.5t-77 119t-42.5 157.5h549q42 -73 134.5 -102t228.5 -29
q67 0 126.5 6t115 20t88.5 41t33 64q0 14 -12 25.5t-39.5 19t-55 12.5t-78 9.5t-87 6.5t-102.5 5q-327 17 -482 46q-371 71 -413 277q-6 28 -6 58q0 476 912 476q111 -1 197 -5.5t180.5 -17t164.5 -33.5t137.5 -57t113 -85t77.5 -119.5t42 -158.5h-549q-42 74 -133.5 102.5
t-229.5 28.5q-68 0 -126.5 -5.5t-115 -19.5t-89 -41t-32.5 -65z" />
    <glyph glyph-name="T" unicode="T" horiz-adv-x="1810" 
d="M1167 -1h-524v918h-623v426h1770v-426h-623v-918z" />
    <glyph glyph-name="U" unicode="U" horiz-adv-x="1876" 
d="M1331 656v689h525v-722q1 -148 -47 -262.5t-129.5 -187.5t-201 -120t-251 -66t-289.5 -19t-289.5 19t-251 66t-201 120t-129.5 187.5t-47 262.5v722h524v-689q-1 -64 20 -111.5t55 -75.5t87.5 -45t107 -23t124.5 -7q71 1 124.5 7t106.5 23t87 45t55 75.5t20 111.5z" />
    <glyph glyph-name="V" unicode="V" horiz-adv-x="2040" 
d="M610 1343l410 -933l410 933h590l-689 -1344h-623l-688 1344h590z" />
    <glyph glyph-name="W" unicode="W" horiz-adv-x="3056" 
d="M2134 492l312 851h590l-590 -1344h-623l-295 672l-295 -672h-623l-590 1344h590l311 -851l312 851h590z" />
    <glyph glyph-name="X" unicode="X" horiz-adv-x="2105" 
d="M1053 951l377 392h655l-705 -672l705 -672h-655l-377 393l-377 -393h-656l705 672l-705 672h656z" />
    <glyph glyph-name="Y" unicode="Y" horiz-adv-x="2072" 
d="M643 1343l393 -482l394 482h622l-754 -885v-459h-524v459l-754 885h623z" />
    <glyph glyph-name="Z" unicode="Z" horiz-adv-x="1777" 
d="M905 917h-885v426h1737v-426l-917 -491h917v-427h-1737v427z" />
    <glyph glyph-name="bracketleft" unicode="[" horiz-adv-x="925" 
d="M479 193h426v-393h-885v1770h885v-393h-426v-984z" />
    <glyph glyph-name="backslash" unicode="\" horiz-adv-x="1155" 
d="M544 1423l591 -1475h-525l-590 1475h524z" />
    <glyph glyph-name="bracketright" unicode="]" horiz-adv-x="925" 
d="M20 -200v393h426v984h-426v393h885v-1770h-885z" />
    <glyph glyph-name="underscore" unicode="_" horiz-adv-x="2105" 
d="M20 1h2065v-361h-2065v361z" />
    <glyph glyph-name="a" unicode="a" horiz-adv-x="2105" 
d="M1053 954l-185 -397h369zM20 -1l721 1344h623l721 -1344h-590l-106 230h-673l-106 -230h-590z" />
    <glyph glyph-name="b" unicode="b" horiz-adv-x="1843" 
d="M544 319h705q33 0 57.5 27.5t24.5 62.5t-24.5 62.5t-57.5 27.5h-705v-180zM1151 1024h-607v-181h607q33 0 57.5 28t24.5 63t-24.5 62.5t-57.5 27.5zM1569 694q117 -38 185.5 -124t68.5 -210q2 -169 -121 -265t-305 -96h-1377v1344h1278q88 0 165.5 -23.5t136.5 -68
t92.5 -114t32.5 -154.5q0 -95 -41 -168.5t-115 -120.5z" />
    <glyph glyph-name="c" unicode="c" horiz-adv-x="1873" 
d="M1316 558h537q-43 -590 -915 -590q-158 0 -289.5 19t-251 66t-201 120t-129.5 187.5t-47 263.5v98q-1 148 47 262.5t129.5 187.5t201 120t250.5 66t290 20q872 -2 915 -590h-537q-34 92 -130.5 127.5t-247.5 35.5q-71 -1 -124.5 -7t-106.5 -23t-87 -45t-55 -75.5
t-20 -111.5v-33q-1 -64 20 -111t55 -75t87 -45.5t107 -23.5t124 -7q151 0 247.5 36t130.5 128z" />
    <glyph glyph-name="d" unicode="d" horiz-adv-x="1876" 
d="M1331 671q0 106 -57 176t-156 70h-574v-492h574q99 0 156 70.5t57 175.5zM20 1343h1196q180 2 328.5 -89t230.5 -246t81 -337q1 -181 -81 -336t-230.5 -246.5t-328.5 -89.5h-1196v1344z" />
    <glyph glyph-name="e" unicode="e" 
d="M20 -1v1344h1573v-344h-1049v-172h1049v-311h-1049v-172h1049v-345h-1573z" />
    <glyph glyph-name="f" unicode="f" horiz-adv-x="1679" 
d="M20 -1v1344h1639v-426h-1115v-164h984v-393h-984v-361h-524z" />
    <glyph glyph-name="g" unicode="g" horiz-adv-x="1867" 
d="M934 509v230h913v-771h-262l-26 209q-110 -109 -272.5 -159t-348.5 -50q-159 1 -290.5 20t-251 66t-201 120t-129 187.5t-46.5 262.5v98q0 107 24 196.5t68 156t109 118.5t142 86.5t171.5 57t193 32t210.5 9.5q832 0 909 -541h-557q-49 67 -143 91q-93 24 -209 24
q-71 -1 -124.5 -7t-107 -23.5t-87.5 -45.5t-55 -75t-20 -111v-33q-1 -64 20 -111.5t55 -75.5t87.5 -45t107 -23t124.5 -7q175 0 269 21.5t149 92.5h-422z" />
    <glyph glyph-name="h" unicode="h" horiz-adv-x="1876" 
d="M1331 460h-787v-459h-524v1344h524v-459h787v459h525v-1344h-525v459z" />
    <glyph glyph-name="i" unicode="i" horiz-adv-x="564" 
d="M20 1345h524v-1344h-524v1344z" />
    <glyph glyph-name="j" unicode="j" horiz-adv-x="1875" 
d="M1331 656v688h524v-721q0 -655 -918 -655q-159 0 -290.5 19t-250.5 66t-200.5 120t-129 187.5t-46.5 262.5v164h524v-131q-1 -64 20 -111.5t55 -75.5t87 -45t106.5 -23t124.5 -7q71 1 124.5 7t107 23t87.5 45t55 75.5t20 111.5z" />
    <glyph glyph-name="k" unicode="k" horiz-adv-x="1974" 
d="M773 460h-229v-459h-524v1344h524v-459h229l493 459h688l-697 -672l697 -672h-688z" />
    <glyph glyph-name="l" unicode="l" 
d="M20 1345h524v-918h1049v-426h-1573v1344z" />
    <glyph glyph-name="m" unicode="m" horiz-adv-x="2400" 
d="M20 1v1344h656l524 -672l525 672h655v-1344h-524v717l-525 -717h-262l-525 717v-717h-524z" />
    <glyph glyph-name="n" unicode="n" horiz-adv-x="1876" 
d="M1331 633v712h525v-1344h-590l-722 821v-821h-524v1344h721z" />
    <glyph glyph-name="o" unicode="o" horiz-adv-x="1875" 
d="M938 1378q917 0 917 -656v-98q1 -148 -46.5 -262.5t-129 -188t-200.5 -120t-250.5 -66t-290.5 -19.5q-112 0 -210.5 9.5t-193 32t-171.5 57t-142 86.5t-109 119t-68 156t-24 196v98q0 107 24 196.5t68 156t109 118.5t142 86.5t171.5 57t193 32t210.5 9.5zM1331 657v33
q1 64 -20 111t-55 75t-87 45.5t-107 23.5t-124 7q-71 -1 -124.5 -7t-107 -23.5t-87.5 -45.5t-55 -75t-20 -111v-33q-1 -64 20 -111.5t55 -75.5t87.5 -45.5t107 -23.5t124.5 -7q70 1 124 7t107 23.5t87 45.5t55 75.5t20 111.5z" />
    <glyph glyph-name="p" unicode="p" horiz-adv-x="1843" 
d="M544 721h640q47 0 80 33q34 34 34 81q0 48 -34 81q-33 34 -80 34h-640v-229zM20 1343h1295q136 1 254 -67.5t187 -186.5t67 -254q2 -136 -67 -254t-187 -187t-254 -67h-771v-328h-524v1344z" />
    <glyph glyph-name="q" unicode="q" horiz-adv-x="1876" 
d="M1856 721v-98q0 -361 -274 -521l274 -397h-558l-169 270q-99 -8 -191 -8q-159 1 -290 20t-250.5 65.5t-201 119.5t-129.5 187.5t-47 263.5v98q-1 148 47 262.5t129.5 187.5t201 120t250.5 66t290 20q159 -1 290 -20t250.5 -66t201 -120t129.5 -187.5t47 -262.5zM938 393
q70 1 124 7t107 23.5t87 45.5t55 75t20 111v33q1 64 -20 111.5t-55 75.5t-87 45t-106.5 23t-124.5 7q-71 -1 -124.5 -7t-107 -23t-87.5 -45t-55 -75.5t-20 -111.5v-33q-1 -64 20 -111t55 -75t87.5 -45.5t107 -23.5t124.5 -7z" />
    <glyph glyph-name="r" unicode="r" horiz-adv-x="1843" 
d="M20 1344h1295q136 1 254 -67.5t187 -186.5t67 -254q0 -152 -81 -275q-80 -123 -212 -184l293 -377h-558l-253 328h-468v-328h-524v1344zM1183 951h-639v-229h639q48 0 81 33q34 34 34 81q0 48 -33.5 81.5t-81.5 33.5z" />
    <glyph glyph-name="s" unicode="s" horiz-adv-x="1864" 
d="M569 902q0 -40 88 -54t286 -23q327 -17 482 -46q371 -71 413 -277q6 -28 6 -59q0 -112 -50.5 -196.5t-133.5 -136.5t-204 -85t-247 -45t-277 -12q-110 0 -197 4.5t-180.5 17.5t-164 34t-138 57t-113 85.5t-77 119t-42.5 157.5h549q42 -73 134.5 -102t228.5 -29
q67 0 126.5 6t115 20t88.5 41t33 64q0 14 -12 25.5t-39.5 19t-55 12.5t-78 9.5t-87 6.5t-102.5 5q-327 17 -482 46q-371 71 -413 277q-6 28 -6 58q0 476 912 476q111 -1 197 -5.5t180.5 -17t164.5 -33.5t137.5 -57t113 -85t77.5 -119.5t42 -158.5h-549q-42 74 -133.5 102.5
t-229.5 28.5q-68 0 -126.5 -5.5t-115 -19.5t-89 -41t-32.5 -65z" />
    <glyph glyph-name="t" unicode="t" horiz-adv-x="1810" 
d="M1167 -1h-524v918h-623v426h1770v-426h-623v-918z" />
    <glyph glyph-name="u" unicode="u" horiz-adv-x="1876" 
d="M1331 656v689h525v-722q1 -148 -47 -262.5t-129.5 -187.5t-201 -120t-251 -66t-289.5 -19t-289.5 19t-251 66t-201 120t-129.5 187.5t-47 262.5v722h524v-689q-1 -64 20 -111.5t55 -75.5t87.5 -45t107 -23t124.5 -7q71 1 124.5 7t106.5 23t87 45t55 75.5t20 111.5z" />
    <glyph glyph-name="v" unicode="v" horiz-adv-x="2040" 
d="M610 1343l410 -933l410 933h590l-689 -1344h-623l-688 1344h590z" />
    <glyph glyph-name="w" unicode="w" horiz-adv-x="3056" 
d="M2134 492l312 851h590l-590 -1344h-623l-295 672l-295 -672h-623l-590 1344h590l311 -851l312 851h590z" />
    <glyph glyph-name="x" unicode="x" horiz-adv-x="2105" 
d="M1053 951l377 392h655l-705 -672l705 -672h-655l-377 393l-377 -393h-656l705 672l-705 672h656z" />
    <glyph glyph-name="y" unicode="y" horiz-adv-x="2072" 
d="M643 1343l393 -482l394 482h622l-754 -885v-459h-524v459l-754 885h623z" />
    <glyph glyph-name="z" unicode="z" horiz-adv-x="1777" 
d="M905 917h-885v426h1737v-426l-917 -491h917v-427h-1737v427z" />
    <glyph glyph-name="braceleft" unicode="{" horiz-adv-x="1155" 
d="M348 257v65q0 82 -58 139q-57 58 -139 58h-131v148v147h131q82 0 139 57q58 58 58 140v65q-2 188 135 325t324 134h328v-393h-230q-68 0 -116 -48t-48 -116q0 -129 -91 -220t-220 -91q128 0 220 -92q91 -91 91 -220q0 -68 48 -116t116 -48h230v-393h-328
q-188 -2 -324.5 134.5t-134.5 324.5z" />
    <glyph glyph-name="bar" unicode="|" horiz-adv-x="564" 
d="M20 1570h524v-1770h-524v1770z" />
    <glyph glyph-name="braceright" unicode="}" horiz-adv-x="1155" 
d="M807 322v-65q2 -188 -134.5 -324.5t-324.5 -134.5h-328v393h229q68 0 116 48t48 116q0 129 91 220q92 92 221 92q-130 0 -221 91t-91 220q0 68 -48 116t-116 48h-229v393h328q123 2 229.5 -60t168.5 -169t61 -230v-65q0 -81 57 -140q58 -57 139 -57h132v-147v-148h-132
q-81 0 -139 -58q-57 -57 -57 -139z" />
    <glyph glyph-name="brokenbar" unicode="&#xa6;" horiz-adv-x="564" 
d="M544 882h-524v688h524v-688zM20 488h524v-688h-524v688z" />
    <glyph glyph-name="copyright" unicode="&#xa9;" horiz-adv-x="1961" 
d="M1216 594h12h328q-21 -177 -194 -263q-63 -32 -134 -50q-129 -30 -247 -30q-117 0 -247 30q-70 18 -127 46.5t-103.5 70.5t-72.5 101.5t-26 132.5v57q0 205 196 301q62 32 133 50q130 30 247 30q118 0 247 -30q128 -32 219 -106q93 -76 109 -207h-328h-12q-22 46 -72 67
q-70 29 -163 29q-43 0 -82 -6.5t-78.5 -22t-63 -47.5t-23.5 -77v-19q0 -84 85 -124q68 -28 162 -28q188 0 235 95zM1338 167h1q101 29 180 72q225 120 225 370v103q-3 104 -32 172q-82 190 -373 270q-171 47 -358 47t-358 -47h-1h-1q-98 -28 -179 -72q-225 -120 -225 -370
v-103q1 -25 1 -33t4 -41t10.5 -51.5t20.5 -53.5t33 -59t50.5 -56.5t70.5 -56.5t94 -48.5t121 -42.5q171 -47 359 -47q187 0 357 47zM1615 67q-104 -57 -223 -89q-193 -55 -411 -55q-219 0 -412 55q-91 25 -170 61.5t-150 91.5t-121 123t-79 159t-29 196v103q0 189 87 324
t239 218q102 56 223 90q200 54 412 54q211 0 411 -54q116 -32 211 -83.5t173 -127t121.5 -183t43.5 -238.5v-103q0 -189 -87 -324t-239 -218z" />
    <glyph glyph-name="registered" unicode="&#xae;" horiz-adv-x="1961" 
d="M780 686h337q27 0 45.5 17t18.5 42q0 24 -18.5 41t-45.5 17h-337v-117zM1472 745q0 -78 -44 -140.5t-118 -95.5l162 -193h-309l-132 168h-251v-168h-291v168v202v117v202h291h410q116 0 199 -77t83 -183zM1744 609v103q-3 104 -32 172q-82 190 -373 270q-171 47 -358 47
t-358 -47h-1h-1q-98 -28 -179 -72q-225 -120 -225 -370v-103q1 -25 1 -33t4 -41t10.5 -51.5t20.5 -53.5t33 -59t50.5 -56.5t70.5 -56.5t94 -48.5t121 -42.5q171 -47 359 -47q187 0 357 47h1h1q98 28 179 72q225 120 225 370zM1941 712v-103q0 -189 -87 -324t-239 -218
q-104 -57 -223 -89q-193 -55 -411 -55q-219 0 -412 55q-91 25 -170 61.5t-150 91.5t-121 123t-79 159t-29 196v103q0 189 87 324t239 218q102 56 223 90q200 54 412 54q211 0 411 -54q116 -32 211 -83.5t173 -127t121.5 -183t43.5 -238.5z" />
    <glyph glyph-name="plusminus" unicode="&#xb1;" 
d="M20 361h1573v-361h-1573v361zM1036 492h-459v262h-557v361h557v262h459v-262h557v-361h-557v-262z" />
    <glyph glyph-name="multiply" unicode="&#xd7;" horiz-adv-x="1629" 
d="M20 391l433 281l-433 282l214 330l580 -377l581 377l214 -330l-433 -282l433 -281l-214 -330l-581 377l-580 -377z" />
    <glyph glyph-name="divide" unicode="&#xf7;" 
d="M1593 479h-1573v393h1573v-393zM1036 348v-328h-459v328h459zM577 1003v328h459v-328h-459z" />
    <glyph glyph-name="trademark" unicode="&#x2122;" horiz-adv-x="2400" 
d="M352 1117h-332v228h944v-228h-332v-489h-280v489zM2380 628h-280v382l-279 -382h-140l-280 382v-382h-280v717h350l280 -359l280 359h349v-717z" />
    <glyph glyph-name="minus" unicode="&#x2212;" 
d="M20 869h1573v-393h-1573v393z" />
    <glyph glyph-name="lessequal" unicode="&#x2264;" 
d="M20 1065l1573 312v-312l-743 -147l743 -131v-312l-1573 279v311zM20 361h1573v-361h-1573v361z" />
    <glyph glyph-name="greaterequal" unicode="&#x2265;" 
d="M20 1065v312l1573 -312v-311l-1573 -279v312l743 131zM20 0v361h1573v-361h-1573z" />
    <glyph glyph-name="A.alt" horiz-adv-x="2105" 
d="M741 1344h623l721 -1344h-590l-442 955l-443 -955h-590z" />
    <glyph glyph-name="K.alt" horiz-adv-x="1941" 
d="M544 1344v-1344h-524v1344h524zM1233 1344h688l-754 -672l754 -672h-688l-689 672z" />
    </font>
</defs>
</svg>
